# Blender v2.79 (sub 0) OBJ File: 'spatialmapping.blend'
# www.blender.org
o Cube_Cube.001
v -0.343655 -0.385917 -0.220242
v -0.343655 -0.286807 -0.220242
v -0.664695 -0.385917 -0.843411
v -0.664695 -0.286807 -0.843411
v 0.582072 -0.385917 -0.220556
v 0.582072 -0.286807 -0.220556
v 0.871776 -0.385917 -0.844074
v 0.871776 -0.286807 -0.844074
vn -0.8890 0.0000 0.4580
vn -0.0004 0.0000 -1.0000
vn 0.9069 0.0000 0.4214
vn 0.0003 0.0000 1.0000
vn 0.0000 -1.0000 0.0000
vn 0.0000 1.0000 0.0000
s off
f 1//1 2//1 4//1 3//1
f 3//2 4//2 8//2 7//2
f 7//3 8//3 6//3 5//3
f 5//4 6//4 2//4 1//4
f 3//5 7//5 5//5 1//5
f 8//6 4//6 2//6 6//6
